<?xml version="1.0" encoding="utf-8"?>
<!-- Generator: Adobe Illustrator 23.0.6, SVG Export Plug-In . SVG Version: 6.00 Build 0)  -->
<svg version="1.1" id="Layer_1" xmlns="http://www.w3.org/2000/svg" xmlns:xlink="http://www.w3.org/1999/xlink" x="0px" y="0px"
	 viewBox="0 0 70 70" style="enable-background:new 0 0 70 70;" xml:space="preserve">
<style type="text/css">
	.st0{opacity:0.7;clip-path:url(#SVGID_2_);}
	.st1{fill:#91B3FA;}
	.st2{fill:#BDD0FB;}
	.st3{clip-path:url(#SVGID_2_);}
	.st4{fill:#495A7D;}
</style>
<g>
	<defs>
		<circle id="SVGID_1_" cx="35" cy="35" r="35"/>
	</defs>
	<clipPath id="SVGID_2_">
		<use xlink:href="#SVGID_1_"  style="overflow:visible;"/>
	</clipPath>
	<g class="st0">
		<path class="st1" d="M-22.2,78.1c-1.3-0.2,17.5-6.3,34.1-24.4c7.8-8.5,15.8-20.5,24.3-21.5c7.1-0.8,20.9,11.8,25.3,16
			c0.6,0.5,0.2,1.5-0.5,1.6c-3.8,0.4-12.1,1.8-16.6,5.7c-6,5.2-14.7,5.2-20.8,2.7c-6.1-2.5-9.8-3.4-18.2,3.5
			C-3.1,68.6-18.5,78.5-22.2,78.1z"/>
		<path class="st2" d="M52.6,46.2c0,0-0.2-0.1-0.5-0.3c-0.3-0.2-0.7-0.4-1.3-0.7c-0.6-0.3-1.3-0.6-2.1-1c-0.8-0.3-1.8-0.7-2.8-1
			c-1.1-0.3-2.2-0.6-3.5-0.8c-1.2-0.2-2.6-0.4-4-0.4c-1.4,0-2.8,0.1-4.3,0.4c-1.4,0.3-2.9,0.7-4.2,1.3L29.5,44
			c-0.2,0.1-0.3,0.2-0.5,0.2c-0.3,0.2-0.7,0.3-1,0.5c-0.6,0.4-1.2,0.7-1.9,1.1c-0.6,0.4-1.2,0.7-1.8,1.1c-0.6,0.4-1.2,0.7-1.8,1.1
			c-1.2,0.7-2.3,1.4-3.3,2.1c-1,0.7-2,1.3-2.9,1.9c-0.4,0.3-0.9,0.6-1.3,0.9c-0.4,0.3-0.8,0.6-1.1,0.8c-0.7,0.5-1.3,1-1.9,1.4
			c-0.5,0.4-0.9,0.7-1.2,0.9c-0.3,0.2-0.4,0.3-0.4,0.3c-0.1,0.1-0.1,0.2,0,0.3c0.1,0.1,0.2,0.1,0.3,0l0,0c0,0,0.1-0.1,0.4-0.3
			c0.3-0.2,0.7-0.5,1.2-0.8c1.1-0.7,2.6-1.7,4.4-2.8c0.9-0.6,1.9-1.2,3-1.8c1.1-0.6,2.2-1.3,3.3-2c1.2-0.7,2.4-1.4,3.6-2.1
			c0.6-0.4,1.2-0.7,1.9-1.1c0.3-0.2,0.6-0.3,0.9-0.5c0.2-0.1,0.3-0.2,0.5-0.2l0.5-0.2c2.6-1.2,5.4-1.7,8.1-1.7
			c1.3,0,2.6,0.1,3.8,0.2c1.2,0.2,2.4,0.4,3.4,0.7c1,0.3,2,0.6,2.8,0.9c0.8,0.3,1.5,0.6,2.1,0.8c0.6,0.3,1,0.5,1.3,0.6
			c0.3,0.2,0.5,0.2,0.5,0.2c0.1,0,0.2,0,0.2-0.1C52.7,46.3,52.7,46.2,52.6,46.2L52.6,46.2z"/>
	</g>
	<g class="st3">
		<path class="st4" d="M68,35c0,8.6-3.1,17.4-9.1,23.9c-3,3.3-6.7,5.9-10.8,7.7c-4.1,1.8-8.6,2.6-13.1,2.5c-4.5-0.1-8.9-1.2-12.9-3
			c-4-1.8-7.6-4.4-10.7-7.6C5.3,52.4,1.5,43.9,1.3,35C1,26.2,4.4,17.1,10.7,10.7c3.1-3.2,6.9-5.8,11.1-7.6C26,1.4,30.5,0.5,35,0.5
			c4.5,0.1,9,1,13.1,2.8C52.3,5.1,56,7.8,59,11C65,17.6,68.1,26.4,68,35z M67.8,35c0-4.3-0.9-8.6-2.7-12.4
			c-1.8-3.9-4.4-7.3-7.5-10.1C51.4,6.8,43.2,3.6,35,3.7c-8.2,0-16.4,3.2-22.3,9c-2.9,2.9-5.4,6.3-7,10.1C4.1,26.7,3.1,30.8,2.9,35
			c-0.1,4.2,0.6,8.5,2.2,12.4c1.6,3.9,4,7.6,7,10.5c6.1,6,14.7,9,22.9,8.7c8.3-0.2,16.4-3.4,22.6-9.1c3.1-2.8,5.7-6.3,7.4-10.2
			C66.8,43.6,67.7,39.3,67.8,35z"/>
	</g>
</g>
</svg>
